<svg version="1.1" xmlns="http://www.w3.org/2000/svg" viewBox="-313.2 -1312.7 4596.4 3374.6"><desc>Created with Snap</desc><defs></defs><g><g><g transform="matrix(0.5,0,0,-0.5,0,0)"><path d="M1567 1933Q1594 1982 1626 1982Q1659 1982 1659 1952Q1659 1949 1659 1946Q1598 929 1591 76Q1604 50 1590 24Q1566 -25 1534 -25Q1495 -25 1492 44Q1491 64 1491 171Q1491 278 1496 475Q1502 672 1509 870Q1517 1069 1525 1266Q1533 1464 1538 1657Q1439 1436 1194 970Q950 505 866 336Q843 293 814 293Q785 293 774 322Q722 562 616 1037Q510 1512 471 1706Q404 1366 259 768Q114 170 80 18Q60 -23 23 -23Q-8 -23 -12 18Q53 375 209 1022Q365 1670 424 1931Q430 1951 447 1965Q465 1980 480 1980Q509 1980 518 1946Q603 1578 689 1161Q776 744 831 510Q968 746 1085 979Q1202 1212 1315 1439Q1429 1666 1567 1933ZM2136 1376Q2195 1376 2195 1317Q2195 1231 2135 1220Q2118 1217 2098 1217Q2078 1217 2058 1237Q2038 1257 2038 1288Q2038 1320 2069 1348Q2100 1376 2136 1376ZM1995 909L1995 929Q1995 943 1980 997Q1980 1022 1997 1042Q2014 1063 2038 1063Q2063 1063 2079 1032Q2095 1001 2095 964Q2095 927 2001 522Q1907 117 1907 95Q1907 74 1927 74Q1940 74 1964 99Q1988 125 2005 125Q2038 125 2038 83Q2038 42 1976 11Q1914 -20 1886 -20Q1816 -20 1816 92Q1816 115 1825 143Q1835 172 1845 222Q1856 273 1875 360Q1895 447 1915 540Q1936 633 1965 765Q1995 898 1995 909ZM2341 0Q2224 0 2224 147Q2224 294 2333 507Q2443 721 2591 876Q2739 1032 2832 1032Q2926 1032 2939 950Q2943 925 2945 897Q2954 903 2967 903Q3014 903 3014 858L3014 850Q3014 847 2989 760Q2964 673 2932 470Q2900 267 2900 123Q2909 117 2921 109Q2933 102 2951 86Q2969 71 2969 50Q2969 29 2956 12Q2943 -4 2919 -4Q2870 -4 2830 46Q2791 96 2791 154Q2791 279 2859 584Q2774 406 2639 241Q2504 76 2452 38Q2401 0 2341 0ZM2326 143Q2326 106 2357 106Q2379 106 2394 121Q2601 299 2765 614Q2858 794 2863 821Q2869 848 2869 867Q2869 886 2859 903Q2849 920 2831 920Q2813 920 2778 901Q2701 859 2588 722Q2476 585 2401 424Q2326 263 2326 143ZM4229 809Q4055 865 4055 909Q4055 934 4072 946Q4089 958 4108 958Q4127 958 4145 953Q4163 948 4181 941Q4199 934 4217 925Q4235 917 4250 911L4455 1872Q4364 1844 4321 1767Q4303 1743 4274 1743Q4237 1743 4237 1778Q4237 1785 4242 1800Q4314 1937 4485 1970Q4507 2011 4536 2011Q4566 2011 4571 1980L4579 1980Q4808 1980 4938 1827Q5069 1675 5069 1487Q5069 1171 4908 980Q4734 772 4418 772Q4369 772 4315 786Q4292 671 4242 442Q4193 213 4164 47Q4159 22 4141 6Q4123 -10 4107 -10Q4074 -10 4070 33Q4104 230 4156 470Q4209 711 4229 809ZM4551 1888L4336 881Q4384 868 4481 868Q4579 868 4674 914Q4770 960 4839 1038Q4983 1204 4983 1438Q4983 1620 4867 1754Q4751 1888 4551 1888ZM5440 1376Q5499 1376 5499 1317Q5499 1231 5439 1220Q5422 1217 5402 1217Q5382 1217 5362 1237Q5342 1257 5342 1288Q5342 1320 5373 1348Q5404 1376 5440 1376ZM5299 909L5299 929Q5299 943 5284 997Q5284 1022 5301 1042Q5318 1063 5342 1063Q5367 1063 5383 1032Q5399 1001 5399 964Q5399 927 5305 522Q5211 117 5211 95Q5211 74 5231 74Q5244 74 5268 99Q5292 125 5309 125Q5342 125 5342 83Q5342 42 5280 11Q5218 -20 5190 -20Q5120 -20 5120 92Q5120 115 5129 143Q5139 172 5149 222Q5160 273 5179 360Q5199 447 5219 540Q5240 633 5269 765Q5299 898 5299 909ZM5710 1033L5796 1026L6236 1024Q6288 1024 6291 1004Q6292 997 6292 985Q6292 974 6286 963Q6281 953 6274 945Q6268 937 6261 931Q6255 926 6187 833Q6120 741 5936 498Q5752 256 5655 123Q5696 123 5772 95Q5848 68 5911 68Q6109 68 6109 180Q6109 202 6091 230Q6073 258 6073 275Q6073 293 6089 313Q6105 334 6128 334Q6166 334 6187 282Q6208 231 6208 195Q6208 94 6136 35Q6065 -23 5929 -23Q5859 -23 5798 -1Q5737 22 5707 32Q5678 43 5648 43Q5619 43 5573 15Q5527 -12 5509 -12Q5472 -12 5472 25Q5472 39 5485 59Q5647 270 5853 542Q6059 815 6150 932L5905 942L5767 932L5733 932Q5640 932 5640 982Q5640 1033 5710 1033ZM6527 1033L6613 1026L7053 1024Q7105 1024 7108 1004Q7109 997 7109 985Q7109 974 7103 963Q7098 953 7091 945Q7085 937 7078 931Q7072 926 7004 833Q6937 741 6753 498Q6569 256 6472 123Q6513 123 6589 95Q6665 68 6728 68Q6926 68 6926 180Q6926 202 6908 230Q6890 258 6890 275Q6890 293 6906 313Q6922 334 6945 334Q6983 334 7004 282Q7025 231 7025 195Q7025 94 6953 35Q6882 -23 6746 -23Q6676 -23 6615 -1Q6554 22 6524 32Q6495 43 6465 43Q6436 43 6390 15Q6344 -12 6326 -12Q6289 -12 6289 25Q6289 39 6302 59Q6464 270 6670 542Q6876 815 6967 932L6722 942L6584 932L6550 932Q6457 932 6457 982Q6457 1033 6527 1033ZM7279 0Q7162 0 7162 147Q7162 294 7271 507Q7381 721 7529 876Q7677 1032 7770 1032Q7864 1032 7877 950Q7881 925 7883 897Q7892 903 7905 903Q7952 903 7952 858L7952 850Q7952 847 7927 760Q7902 673 7870 470Q7838 267 7838 123Q7847 117 7859 109Q7871 102 7889 86Q7907 71 7907 50Q7907 29 7894 12Q7881 -4 7857 -4Q7808 -4 7768 46Q7729 96 7729 154Q7729 279 7797 584Q7712 406 7577 241Q7442 76 7390 38Q7339 0 7279 0ZM7264 143Q7264 106 7295 106Q7317 106 7332 121Q7539 299 7703 614Q7796 794 7801 821Q7807 848 7807 867Q7807 886 7797 903Q7787 920 7769 920Q7751 920 7716 901Q7639 859 7526 722Q7414 585 7339 424Q7264 263 7264 143Z" fill="#1a283f" style=""></path></g></g><g transform="matrix(1,0,0,1,-10,1334.7)"><g transform="matrix(0.5,0,0,-0.5,0,0)"><path d="M334 934Q334 995 368 995Q388 995 394 989Q400 983 416 970Q433 958 510 958Q588 958 671 1002Q755 1046 816 1120Q944 1277 944 1493Q944 1661 862 1777Q781 1894 649 1894Q544 1894 489 1878L111 31Q100 -4 54 -4Q8 -4 8 29Q8 38 11 49Q14 61 23 106Q45 219 172 827Q300 1436 389 1831Q359 1812 317 1774Q315 1752 296 1736Q277 1720 252 1720L227 1726Q199 1739 199 1768Q199 1824 264 1871Q330 1919 428 1944Q464 2030 494 2030Q518 2030 530 1962Q573 1968 612 1968Q827 1968 937 1816Q1028 1690 1028 1483Q1028 1217 871 1039Q715 862 434 862Q434 520 550 195Q685 -188 960 -370Q1170 -510 1455 -510Q1740 -510 1976 -318Q2047 -259 2124 -190Q2132 -182 2150 -182Q2187 -182 2187 -219Q2187 -240 2171 -260Q2019 -417 1874 -495Q1676 -602 1426 -602Q1177 -602 942 -458Q518 -196 383 424Q334 649 334 934ZM1466 168Q1501 168 1501 131Q1501 88 1396 34Q1291 -20 1221 -20Q1151 -20 1116 3Q1081 26 1059 67Q1016 147 1016 260Q1016 460 1076 637Q1136 814 1236 930Q1336 1047 1452 1047Q1514 1047 1549 995Q1585 944 1585 874Q1585 743 1516 652Q1448 561 1348 503Q1248 445 1118 393L1114 246Q1114 74 1218 74Q1274 74 1335 106Q1397 139 1424 153Q1451 168 1466 168ZM1491 870Q1491 950 1424 950Q1364 950 1283 842Q1202 734 1149 557Q1136 514 1134 492Q1174 514 1216 534Q1258 554 1298 576Q1390 627 1440 695Q1491 764 1491 870ZM1774 258Q1774 76 1907 76Q1973 76 2031 140Q2053 165 2072 185Q2091 205 2111 205Q2151 205 2151 170Q2151 106 2069 40Q1987 -25 1883 -25Q1780 -25 1726 51Q1673 128 1673 224Q1673 403 1739 595Q1806 787 1914 917Q2023 1047 2144 1047Q2232 1047 2260 984Q2267 967 2276 940Q2286 914 2298 907Q2306 894 2306 875Q2306 857 2289 841Q2272 825 2251 825Q2208 825 2196 888Q2184 952 2129 952Q2052 952 1969 835Q1887 718 1830 551Q1774 384 1774 258ZM2689 1376Q2748 1376 2748 1317Q2748 1231 2688 1220Q2671 1217 2651 1217Q2631 1217 2611 1237Q2591 1257 2591 1288Q2591 1320 2622 1348Q2653 1376 2689 1376ZM2548 909L2548 929Q2548 943 2533 997Q2533 1022 2550 1042Q2567 1063 2591 1063Q2616 1063 2632 1032Q2648 1001 2648 964Q2648 927 2554 522Q2460 117 2460 95Q2460 74 2480 74Q2493 74 2517 99Q2541 125 2558 125Q2591 125 2591 83Q2591 42 2529 11Q2467 -20 2439 -20Q2369 -20 2369 92Q2369 115 2378 143Q2388 172 2398 222Q2409 273 2428 360Q2448 447 2468 540Q2489 633 2518 765Q2548 898 2548 909ZM3098 905L3070 758Q3216 1038 3386 1038Q3475 1038 3514 985Q3553 933 3553 830Q3553 641 3499 444Q3445 248 3337 110Q3230 -27 3084 -27Q3028 -27 2994 -3Q2960 21 2939 78Q2888 -154 2842 -384Q2797 -613 2748 -799Q2728 -840 2691 -840Q2660 -840 2656 -799Q2722 -540 2762 -331Q2802 -122 2823 -10Q2845 102 2884 311Q2924 521 3012 967L3012 1012Q3012 1032 3030 1050Q3049 1069 3073 1069Q3098 1069 3109 1050Q3121 1031 3121 1013Q3121 996 3118 982Q3115 968 3111 954Q3107 941 3103 928Q3099 915 3098 905ZM2982 227Q2982 70 3098 70Q3206 70 3296 204Q3411 376 3448 662Q3459 741 3459 814Q3459 946 3394 946Q3329 946 3243 851Q3123 718 3052 536Q2982 354 2982 227ZM4118 168Q4153 168 4153 131Q4153 88 4048 34Q3943 -20 3873 -20Q3803 -20 3768 3Q3733 26 3711 67Q3668 147 3668 260Q3668 460 3728 637Q3788 814 3888 930Q3988 1047 4104 1047Q4166 1047 4201 995Q4237 944 4237 874Q4237 743 4168 652Q4100 561 4000 503Q3900 445 3770 393L3766 246Q3766 74 3870 74Q3926 74 3987 106Q4049 139 4076 153Q4103 168 4118 168ZM4143 870Q4143 950 4076 950Q4016 950 3935 842Q3854 734 3801 557Q3788 514 3786 492Q3826 514 3868 534Q3910 554 3950 576Q4042 627 4092 695Q4143 764 4143 870Z" fill="#1a283f" style=""></path></g></g></g></svg>